<svg width="208" height="75" viewBox="0 0 208 75" fill="none" xmlns="http://www.w3.org/2000/svg">
<path d="M3.13281 66.7734V71H1.15625V59.625H5.50781C6.77865 59.625 7.78646 59.9557 8.53125 60.6172C9.28125 61.2786 9.65625 62.1536 9.65625 63.2422C9.65625 64.3568 9.28906 65.224 8.55469 65.8438C7.82552 66.4635 6.80208 66.7734 5.48438 66.7734H3.13281ZM3.13281 65.1875H5.50781C6.21094 65.1875 6.7474 65.0234 7.11719 64.6953C7.48698 64.362 7.67188 63.8828 7.67188 63.2578C7.67188 62.6432 7.48438 62.1536 7.10938 61.7891C6.73438 61.4193 6.21875 61.2292 5.5625 61.2188H3.13281V65.1875ZM10.7422 66.6953C10.7422 65.8672 10.9062 65.1224 11.2344 64.4609C11.5625 63.7943 12.0234 63.2839 12.6172 62.9297C13.2109 62.5703 13.8932 62.3906 14.6641 62.3906C15.8047 62.3906 16.7292 62.7578 17.4375 63.4922C18.151 64.2266 18.5365 65.2005 18.5938 66.4141L18.6016 66.8594C18.6016 67.6927 18.4401 68.4375 18.1172 69.0938C17.7995 69.75 17.3411 70.2578 16.7422 70.6172C16.1484 70.9766 15.4609 71.1562 14.6797 71.1562C13.487 71.1562 12.5312 70.7604 11.8125 69.9688C11.099 69.1719 10.7422 68.112 10.7422 66.7891V66.6953ZM12.6406 66.8594C12.6406 67.7292 12.8203 68.4115 13.1797 68.9062C13.5391 69.3958 14.0391 69.6406 14.6797 69.6406C15.3203 69.6406 15.8177 69.3906 16.1719 68.8906C16.5312 68.3906 16.7109 67.6589 16.7109 66.6953C16.7109 65.8411 16.526 65.1641 16.1562 64.6641C15.7917 64.1641 15.2943 63.9141 14.6641 63.9141C14.0443 63.9141 13.5521 64.1615 13.1875 64.6562C12.8229 65.1458 12.6406 65.8802 12.6406 66.8594ZM27.6328 68.3828L28.9766 62.5469H30.8281L28.5234 71H26.9609L25.1484 65.1953L23.3672 71H21.8047L19.4922 62.5469H21.3438L22.7109 68.3203L24.4453 62.5469H25.875L27.6328 68.3828ZM35.8203 71.1562C34.6172 71.1562 33.6406 70.7786 32.8906 70.0234C32.1458 69.263 31.7734 68.2526 31.7734 66.9922V66.7578C31.7734 65.9141 31.9349 65.1615 32.2578 64.5C32.5859 63.8333 33.0443 63.3151 33.6328 62.9453C34.2214 62.5755 34.8776 62.3906 35.6016 62.3906C36.7526 62.3906 37.6406 62.7578 38.2656 63.4922C38.8958 64.2266 39.2109 65.2656 39.2109 66.6094V67.375H33.6875C33.7448 68.0729 33.9766 68.625 34.3828 69.0312C34.7943 69.4375 35.3099 69.6406 35.9297 69.6406C36.7995 69.6406 37.5078 69.2891 38.0547 68.5859L39.0781 69.5625C38.7396 70.0677 38.2865 70.4609 37.7188 70.7422C37.1562 71.0182 36.5234 71.1562 35.8203 71.1562ZM35.5938 63.9141C35.0729 63.9141 34.651 64.0964 34.3281 64.4609C34.0104 64.8255 33.8073 65.3333 33.7188 65.9844H37.3359V65.8438C37.2943 65.2083 37.125 64.7292 36.8281 64.4062C36.5312 64.0781 36.1198 63.9141 35.5938 63.9141ZM45.1172 64.2812C44.8672 64.2396 44.6094 64.2188 44.3438 64.2188C43.474 64.2188 42.888 64.5521 42.5859 65.2188V71H40.6875V62.5469H42.5L42.5469 63.4922C43.0052 62.7578 43.6406 62.3906 44.4531 62.3906C44.724 62.3906 44.9479 62.4271 45.125 62.5L45.1172 64.2812ZM49.8828 71.1562C48.6797 71.1562 47.7031 70.7786 46.9531 70.0234C46.2083 69.263 45.8359 68.2526 45.8359 66.9922V66.7578C45.8359 65.9141 45.9974 65.1615 46.3203 64.5C46.6484 63.8333 47.1068 63.3151 47.6953 62.9453C48.2839 62.5755 48.9401 62.3906 49.6641 62.3906C50.8151 62.3906 51.7031 62.7578 52.3281 63.4922C52.9583 64.2266 53.2734 65.2656 53.2734 66.6094V67.375H47.75C47.8073 68.0729 48.0391 68.625 48.4453 69.0312C48.8568 69.4375 49.3724 69.6406 49.9922 69.6406C50.862 69.6406 51.5703 69.2891 52.1172 68.5859L53.1406 69.5625C52.8021 70.0677 52.349 70.4609 51.7812 70.7422C51.2188 71.0182 50.5859 71.1562 49.8828 71.1562ZM49.6562 63.9141C49.1354 63.9141 48.7135 64.0964 48.3906 64.4609C48.0729 64.8255 47.8698 65.3333 47.7812 65.9844H51.3984V65.8438C51.3568 65.2083 51.1875 64.7292 50.8906 64.4062C50.5938 64.0781 50.1823 63.9141 49.6562 63.9141ZM54.3984 66.7109C54.3984 65.4089 54.7005 64.3646 55.3047 63.5781C55.9089 62.7865 56.7188 62.3906 57.7344 62.3906C58.6302 62.3906 59.3542 62.7031 59.9062 63.3281V59H61.8047V71H60.0859L59.9922 70.125C59.4245 70.8125 58.6667 71.1562 57.7188 71.1562C56.7292 71.1562 55.9271 70.7578 55.3125 69.9609C54.7031 69.1641 54.3984 68.0807 54.3984 66.7109ZM56.2969 66.875C56.2969 67.7344 56.4609 68.4062 56.7891 68.8906C57.1224 69.3698 57.5938 69.6094 58.2031 69.6094C58.9792 69.6094 59.5469 69.263 59.9062 68.5703V64.9609C59.5573 64.2839 58.9948 63.9453 58.2188 63.9453C57.6042 63.9453 57.1302 64.1901 56.7969 64.6797C56.4635 65.1641 56.2969 65.8958 56.2969 66.875ZM67.9531 71V59.625H71.8516C73.138 59.625 74.1172 59.8828 74.7891 60.3984C75.4609 60.9141 75.7969 61.6823 75.7969 62.7031C75.7969 63.224 75.6562 63.6927 75.375 64.1094C75.0938 64.526 74.6823 64.849 74.1406 65.0781C74.7552 65.2448 75.2292 65.5599 75.5625 66.0234C75.901 66.4818 76.0703 67.0339 76.0703 67.6797C76.0703 68.7474 75.7266 69.5677 75.0391 70.1406C74.3568 70.7135 73.3776 71 72.1016 71H67.9531ZM69.9297 65.8672V69.4219H72.125C72.7448 69.4219 73.2292 69.2682 73.5781 68.9609C73.9271 68.6536 74.1016 68.2266 74.1016 67.6797C74.1016 66.4974 73.4974 65.8932 72.2891 65.8672H69.9297ZM69.9297 64.4141H71.8672C72.4818 64.4141 72.9609 64.276 73.3047 64C73.6536 63.7188 73.8281 63.3229 73.8281 62.8125C73.8281 62.25 73.6667 61.8438 73.3438 61.5938C73.026 61.3438 72.5286 61.2188 71.8516 61.2188H69.9297V64.4141ZM80.8203 68.2812L82.5391 62.5469H84.5625L81.2031 72.2812C80.6875 73.7031 79.8125 74.4141 78.5781 74.4141C78.3021 74.4141 77.9974 74.3672 77.6641 74.2734V72.8047L78.0234 72.8281C78.5026 72.8281 78.862 72.7396 79.1016 72.5625C79.3464 72.3906 79.5391 72.099 79.6797 71.6875L79.9531 70.9609L76.9844 62.5469H79.0312L80.8203 68.2812Z" fill="#A998FF"/>
<g clip-path="url(#clip0_24536_414)">
<path d="M145.542 8.07988C142.343 8.07988 140.058 9.15812 138.937 11.1976L138.334 12.2965V8.61212H133.122V31.0601H138.604V17.706C138.604 14.5149 140.36 12.6842 143.427 12.6842C146.349 12.6842 148.024 14.4644 148.024 17.5729V31.0601H153.506V16.6071C153.506 11.271 150.528 8.07988 145.542 8.07988ZM118.967 8.07988C112.501 8.07988 108.483 12.0556 108.483 18.4608V21.6129C108.483 27.768 112.536 31.5946 119.058 31.5946C123.418 31.5946 126.475 30.0162 128.399 26.7769L125 24.8522C123.579 26.7219 121.31 27.8781 119.058 27.8781C115.756 27.8781 113.783 25.8685 113.783 22.5007V21.6083H129.09V17.8826C129.09 11.9179 125.116 8.07988 118.967 8.07988ZM124.104 17.9767H113.783V17.4399C113.783 13.7418 115.624 11.7046 118.967 11.7046C122.185 11.7046 124.104 13.7142 124.104 17.082V17.9767ZM207.919 4.91629V0.621706H188.968V4.91629H195.613V26.7678H188.968V31.0601H207.919V26.7678H201.274V4.91629H207.919ZM64.2148 0C55.7482 0 50.4877 5.20306 50.4877 13.5766V18.1052C50.4877 26.481 55.7459 31.6818 64.2148 31.6818C72.6837 31.6818 77.9418 26.481 77.9418 18.1052V13.5766C77.9395 5.20306 72.679 0 64.2148 0ZM72.2788 18.4149C72.2788 23.9758 69.3403 27.1669 64.2148 27.1669C59.0892 27.1669 56.1484 23.9758 56.1484 18.4149V13.2669C56.1484 7.70594 59.0869 4.51482 64.2124 4.51482C69.338 4.51482 72.2765 7.70594 72.2765 13.2669L72.2788 18.4149ZM95.1519 8.09135C92.2762 8.09135 89.7843 9.26365 88.4884 11.232L87.8975 12.1267V8.61212H82.6882V38.7844H88.1674V27.8575L88.756 28.7155C89.9891 30.5164 92.3971 31.5946 95.1961 31.5946C99.9214 31.5946 104.689 28.548 104.689 21.7459V17.9239C104.689 13.026 101.75 8.07988 95.1495 8.07988L95.1519 8.09135ZM99.2095 21.489C99.2095 25.1068 97.069 27.3551 93.6256 27.3551C90.4149 27.3551 88.172 24.9806 88.172 21.5785V18.2061C88.172 14.7512 90.4335 12.3401 93.6698 12.3401C97.0899 12.3401 99.2141 14.5883 99.2141 18.2061L99.2095 21.489ZM168.652 0.633176L157.589 31.0601H163.15L165.267 24.5356H177.982L178.003 24.5998L180.097 31.0601H185.664L174.592 0.621706L168.652 0.633176ZM166.635 20.2525L171.623 4.84747L176.563 20.2341L166.635 20.2525ZM36.2506 15.8712C36.6905 14.5653 36.8426 13.1818 36.6968 11.8133C36.5511 10.4448 36.1109 9.12271 35.4056 7.93535C33.26 4.25306 28.9478 2.35881 24.7367 3.2487C23.5706 1.96974 22.0837 1.01584 20.4254 0.4828C18.7671 -0.0502397 16.9957 -0.143651 15.2892 0.211948C13.5827 0.567547 12.0012 1.35964 10.7034 2.50866C9.40557 3.65769 8.43725 5.1232 7.89564 6.75801C6.52824 7.03453 5.23645 7.59564 4.1066 8.40386C2.97674 9.21207 2.03485 10.2488 1.34388 11.4447C-0.825 15.121 -0.332687 19.7585 2.56116 22.9125C2.11975 24.2178 1.96613 25.601 2.11058 26.9696C2.25503 28.3382 2.69421 29.6606 3.39875 30.8483C5.54669 34.532 9.86164 36.426 14.0754 35.535C15.0018 36.5636 16.1402 37.3855 17.4145 37.9458C18.6887 38.5061 20.0695 38.7919 21.4647 38.7841C25.7811 38.788 29.6056 36.0404 30.9238 31.9876C32.2911 31.7106 33.5827 31.1493 34.7125 30.3411C35.8422 29.533 36.7842 28.4965 37.4756 27.3009C39.6184 23.631 39.124 19.0185 36.2506 15.8712ZM21.4645 36.2459C19.7415 36.2486 18.0726 35.6532 16.7503 34.5641L16.983 34.434L24.8141 29.9768C25.009 29.8641 25.1708 29.7033 25.2837 29.5103C25.3965 29.3172 25.4565 29.0986 25.4577 28.8758V17.9889L28.7685 19.8774C28.7848 19.8856 28.7989 19.8974 28.8097 19.912C28.8205 19.9266 28.8277 19.9435 28.8306 19.9613V28.983C28.822 32.9908 25.5291 36.2377 21.4645 36.2461V36.2459ZM5.63161 29.5792C4.76757 28.1081 4.45731 26.3837 4.7554 24.7093L4.98806 24.8469L12.8269 29.3039C13.0209 29.4162 13.2417 29.4753 13.4666 29.4753C13.6915 29.4753 13.9124 29.4162 14.1063 29.3039L23.682 23.8607V27.6299C23.6811 27.6494 23.6757 27.6684 23.6663 27.6855C23.657 27.7027 23.6438 27.7175 23.6278 27.729L15.6959 32.2399C12.171 34.242 7.66787 33.0516 5.63161 29.5792ZM3.56906 12.7599C4.43912 11.2792 5.81244 10.1499 7.44591 9.57175V18.7459C7.44295 18.9676 7.5004 19.186 7.61225 19.3783C7.7241 19.5706 7.88624 19.7298 8.08177 19.8393L17.6109 25.2598L14.3001 27.1484C14.2822 27.1577 14.2622 27.1626 14.242 27.1626C14.2217 27.1626 14.2017 27.1577 14.1838 27.1484L6.26747 22.645C2.74962 20.6347 1.54327 16.1976 3.56906 12.7216V12.7599ZM30.7689 18.9907L21.2088 13.5167L24.5117 11.636C24.5296 11.6266 24.5496 11.6217 24.5698 11.6217C24.5901 11.6217 24.6101 11.6266 24.628 11.636L32.5446 16.1467C33.7549 16.8354 34.7416 17.8494 35.3894 19.0703C36.0373 20.2912 36.3195 21.6686 36.2032 23.0417C36.087 24.4149 35.577 25.727 34.7328 26.8251C33.8886 27.9232 32.7451 28.7618 31.4357 29.2431V20.0685C31.4289 19.8472 31.3638 19.6315 31.2469 19.4425C31.13 19.2535 30.9653 19.0977 30.7689 18.9905V18.9907ZM34.0641 14.1054L33.8314 13.9677L26.0082 9.47241C25.813 9.3595 25.5909 9.29997 25.3646 9.29997C25.1384 9.29997 24.9162 9.3595 24.7211 9.47241L15.1531 14.9154V11.1462C15.1511 11.1271 15.1544 11.1078 15.1626 11.0904C15.1708 11.0729 15.1835 11.058 15.1996 11.0471L23.1159 6.54374C24.3293 5.85453 25.7165 5.52022 27.1155 5.5799C28.5144 5.63957 29.8672 6.09078 31.0156 6.88075C32.1641 7.67071 33.0606 8.76677 33.6005 10.0407C34.1403 11.3147 34.3011 12.7139 34.0641 14.0746V14.1052V14.1054ZM13.3465 20.7872L10.0357 18.9065C10.0191 18.8966 10.005 18.8833 9.99425 18.8674C9.98352 18.8516 9.97645 18.8336 9.97355 18.8147V9.81607C9.9754 8.43566 10.3758 7.08429 11.1278 5.91996C11.8798 4.75564 12.9525 3.82646 14.2204 3.24108C15.4882 2.6557 16.8989 2.4383 18.2874 2.61429C19.676 2.79029 20.985 3.35241 22.0615 4.23494L21.8288 4.36502L13.9977 8.82226C13.8028 8.93498 13.641 9.09575 13.5282 9.28877C13.4153 9.48179 13.3554 9.70042 13.3541 9.92321L13.3465 20.7872ZM15.1454 16.9645L19.4099 14.541L23.682 16.9645V21.8116L19.4252 24.2353L15.1533 21.8116L15.1456 16.9645H15.1454Z" fill="white" fill-opacity="0.6"/>
</g>
<defs>
<clipPath id="clip0_24536_414">
<rect width="208" height="39" fill="white"/>
</clipPath>
</defs>
</svg>
